<?xml version="1.0" encoding="utf-8"?>
<svg xmlns="http://www.w3.org/2000/svg" viewBox="0 0 500 500">
  <g style="transform-origin: 249.634px 226.163px;" transform="matrix(1.47039, 0, 0, 1.47039, 5.102918, 19.308962)">
    <rect x="178.906" y="132.762" width="141.186" height="68.553" rx="25.3" style="" fill="black"/>
    <rect x="177.385" y="239.117" width="139.826" height="68.553" rx="25.3" style="" fill="black"/>
    <path d="M 131.396 148.752 L 133.666 151.022 L 131.396 148.752 C 128.416 151.732 126.956 155.492 126.956 159.752 L 126.956 344.571 C 126.956 348.662 128.486 352.261 131.396 355.163 L 143.986 367.756 C 147.056 370.827 150.756 372.603 154.986 372.603 C 159.026 372.603 162.566 370.756 165.536 367.802 L 172.396 361.344 L 172.506 361.246 L 172.596 361.14 C 175.166 358.357 177.916 357.168 180.986 357.168 C 184.056 357.168 186.796 358.357 189.366 361.14 L 189.426 361.2 L 189.486 361.257 L 195.986 367.756 C 198.966 370.735 202.726 372.198 206.986 372.198 L 292.286 372.198 C 296.54 372.198 300.305 370.735 303.284 367.756 L 367.871 303.172 C 370.849 300.192 372.311 296.422 372.311 292.172 L 372.311 254.392 C 372.311 250.142 370.849 246.372 367.871 243.392 L 367.847 243.372 L 367.823 243.352 L 355.256 231.182 C 353.469 229.392 352.814 227.682 352.814 225.962 C 352.814 224.232 353.469 222.532 355.256 220.732 L 367.823 208.572 L 367.847 208.552 L 367.871 208.522 C 370.849 205.542 372.311 201.782 372.311 197.522 L 372.311 159.752 C 372.311 155.492 370.849 151.732 367.871 148.752 L 303.284 84.162 C 300.305 81.182 296.54 79.722 292.286 79.722 L 206.986 79.722 C 202.726 79.722 198.966 81.182 195.986 84.162 L 131.396 148.752 Z M 314.408 255.442 L 314.587 255.652 L 314.791 255.832 C 315.881 256.782 316.652 258.262 316.652 260.892 L 316.652 309.231 C 316.652 311.847 315.882 313.597 314.593 314.886 C 313.677 315.802 312.138 316.538 309.345 316.538 L 189.926 316.538 C 187.306 316.538 185.536 315.887 184.276 314.875 C 183.266 313.617 182.616 311.848 182.616 309.231 L 182.616 260.892 C 182.616 258.102 183.346 256.562 184.266 255.642 C 185.556 254.352 187.306 253.582 189.926 253.582 L 309.345 253.582 C 311.977 253.582 313.454 254.352 314.408 255.442 Z" stroke="black" stroke-width="29.9" style="fill: rgb(23, 224, 26);"/>
    <path d="M 315.44 149.535 L 315.619 149.745 L 315.823 149.925 C 316.913 150.875 317.684 152.355 317.684 154.985 L 317.684 203.324 C 317.684 205.94 316.914 207.69 315.625 208.979 C 314.709 209.895 313.17 210.631 310.377 210.631 L 190.958 210.631 C 188.338 210.631 186.568 209.98 185.308 208.968 C 184.298 207.71 183.648 205.941 183.648 203.324 L 183.648 154.985 C 183.648 152.195 184.378 150.655 185.298 149.735 C 186.588 148.445 188.338 147.675 190.958 147.675 L 310.377 147.675 C 313.009 147.675 314.486 148.445 315.44 149.535 Z" stroke="black" stroke-width="29.9" style="fill: rgb(51, 224, 23); transform-box: fill-box; transform-origin: 74.7199% -94.1594%;"/>
    <rect x="182.914" y="147.204" width="139.826" height="68.553" style="" fill="black"/>
  </g>
</svg>